# xmcd
#
# Track frame offsets:
#	150
#	17610
#	33274
#	50920
#	69321
#	92271
#	107875
#	130332
#	144706
#	166540
#	182044
#
# Disc length: 2677 seconds
#
# Revision: 0
# Processed by: cddbd v1.4PL0 Copyright (c) Steve Scherf et al.
# Submitted via: dBpowerAMP V4.0
#
DISCID=8c0a730b
DTITLE=Hadden Sayers - 12 Bars and the Naked Truth
DYEAR=2003
DGENRE=Blues
TTITLE0=Extraordinary Girl
TTITLE1=These are the Good Times
TTITLE2=Sunday Afternoon
TTITLE3=Complicated
TTITLE4=Hate Yourself Tomorrow
TTITLE5=RocknRollStar
TTITLE6=Mister Know-It-All
TTITLE7=Pray for Rain
TTITLE8=Take a Little More
TTITLE9=Up To You
TTITLE10=Absolutely Free
EXTD=
EXTT0=
EXTT1=
EXTT2=
EXTT3=
EXTT4=
EXTT5=
EXTT6=
EXTT7=
EXTT8=
EXTT9=
EXTT10=
PLAYORDER=
